<svg width="154" height="125" viewBox="0 0 154 125" fill="none" xmlns="http://www.w3.org/2000/svg">
<g clip-path="url(#clip0_1_18)">
<path d="M3.4454 104.973C3.4454 104.426 3.64655 103.959 4.1092 103.594C4.55172 103.229 5.11494 103.047 5.77874 103.088C7.14655 105.298 9.05747 106.96 11.5718 108.116C11.7328 106.048 11.773 102.804 11.773 98.343C11.773 92.3819 11.6121 88.3673 11.3103 86.2586C11.3707 86.0762 11.5718 85.9748 12.0144 85.9342C12.4569 85.8937 12.9195 86.0153 13.4828 86.2181C14.8506 86.8264 15.5948 87.9212 15.7557 89.5433C15.796 89.7866 15.796 90.4557 15.796 91.5303C15.796 100.168 15.2529 106.007 14.1868 109.008C15.2529 109.251 16.2989 109.373 17.4052 109.373C21.0259 109.373 23.9023 108.116 26.0546 105.581C28.0259 103.311 28.9713 100.472 28.9713 97.1264C28.9713 93.1929 27.6638 89.888 25.0488 87.2116C22.0718 84.1702 18.1092 82.7915 13.0805 83.0551C9.9023 83.197 7.3477 84.0283 5.37644 85.5084C3.66667 86.8466 2.80172 88.3673 2.80172 90.111C2.80172 91.5506 3.46552 92.7469 4.71264 93.7201C6.08046 94.7744 7.99138 95.2813 10.3448 95.2813C10.546 95.6869 10.4454 96.1126 9.98276 96.579C9.47989 97.1264 8.67529 97.3697 7.6092 97.3697C4.83333 97.3697 2.68103 96.7615 1.11207 95.4841C-0.295977 94.3689 -1 92.8888 -1 91.064C-1 88.4687 0.307471 86.137 2.98276 84.15C5.95977 81.8993 9.78161 80.7842 14.5086 80.7842C20.4425 80.7842 25.1293 82.4873 28.5891 85.8531C31.6667 88.8539 33.1753 92.5036 33.1753 96.8223C33.1753 100.796 31.8678 104.162 29.2529 106.879C26.3764 109.88 22.5546 111.401 17.7874 111.401C16.319 111.401 14.7701 111.259 13.2011 110.934C12.7385 111.542 12.296 111.867 11.7931 111.867C11.1293 111.867 10.8879 111.401 11.0891 110.448C7.50862 109.474 5.15517 108.136 3.98851 106.433C3.62644 105.845 3.42529 105.338 3.42529 104.953L3.4454 104.973Z" fill="#3E281A"/>
<path d="M38.4454 109.961C36.273 109.961 35.0661 108.4 34.8649 105.298C34.704 102.946 35.0259 100.371 35.8707 97.5522C36.2328 96.2952 36.977 95.3422 38.1437 94.7339C39.25 94.1256 39.9138 94.0851 40.1552 94.5514C38.9885 98.4647 38.3851 101.648 38.2845 104.061C38.2241 106.23 38.5259 107.325 39.2902 107.325C40.4569 107.325 41.4023 105.764 42.1667 102.702C42.2672 100.857 42.5287 99.0527 42.8707 97.3089C43.0316 96.2952 43.7759 95.5044 45.0431 94.9164C45.4856 94.6934 45.9483 94.592 46.3103 94.6325C46.6724 94.6325 46.8132 94.7745 46.773 95.0583C45.3649 103.047 45.1034 107.041 46.069 107.041C46.3103 107.041 46.6121 106.818 47.0345 106.392C48 105.379 48.8046 104.122 49.5488 102.56C49.8506 102.378 50.2126 102.52 50.6149 102.966C51.0172 103.432 51.0776 103.939 50.8161 104.527C49.1465 108.075 47.135 109.839 44.7213 109.839C43.5546 109.839 42.75 108.967 42.3477 107.244C41.4425 109.089 40.1351 110.002 38.4655 110.002L38.4454 109.961Z" fill="#3E281A"/>
<path d="M55.7443 95.6665C55.2012 95.6665 54.5776 96.4167 53.9741 97.9171C53.3103 99.3972 52.9684 100.999 52.8075 102.682C52.546 106.149 53.4713 107.893 55.523 107.893C57.5747 107.893 59.6063 106.129 61.3161 102.54C61.6782 102.357 62.0201 102.499 62.3822 102.945C62.7845 103.412 62.8448 103.919 62.5833 104.507C61.7184 106.25 60.5718 107.609 59.0632 108.663C57.5948 109.677 56.046 110.184 54.3764 110.184C52.4655 110.184 50.9971 109.434 50.0517 107.913C49.1868 106.575 48.8851 104.912 49.046 102.844C49.2069 100.533 49.9109 98.5457 51.0575 96.8425C52.3649 94.9569 53.9741 94.0242 55.9454 94.0242C57.4138 94.0242 58.4195 94.4297 59.0632 95.261C59.6063 95.9504 59.7672 96.8222 59.5057 97.7955C59.2644 98.7687 58.7615 99.5392 57.9971 100.006C57.1322 100.553 56.1868 100.614 55.2213 100.188C55.8851 99.2553 56.2874 98.2618 56.4282 97.248C56.5891 96.1937 56.3276 95.6868 55.7241 95.6868L55.7443 95.6665Z" fill="#3E281A"/>
<path d="M64.454 109.961C62.2816 109.961 61.0747 108.4 60.8736 105.298C60.7127 102.946 61.0345 100.371 61.8793 97.5522C62.2414 96.2952 62.9856 95.3422 64.1523 94.7339C65.2586 94.1256 65.9224 94.0851 66.1638 94.5514C64.9971 98.4647 64.3937 101.648 64.2931 104.061C64.2328 106.23 64.5345 107.325 65.2989 107.325C66.4655 107.325 67.4109 105.764 68.1753 102.702C68.2759 100.857 68.5374 99.0527 68.8793 97.3089C69.0402 96.2952 69.7845 95.5044 71.0517 94.9164C71.4943 94.6934 71.9569 94.592 72.319 94.6325C72.681 94.6325 72.8218 94.7745 72.7816 95.0583C71.3736 103.047 71.1121 107.041 72.0776 107.041C72.319 107.041 72.6207 106.818 73.0431 106.392C74.0086 105.379 74.8132 104.122 75.5575 102.56C75.8592 102.378 76.2213 102.52 76.6236 102.966C77.0259 103.432 77.0862 103.939 76.8247 104.527C75.1552 108.075 73.1437 109.839 70.7299 109.839C69.5632 109.839 68.7586 108.967 68.3563 107.244C67.4512 109.089 66.1437 110.002 64.4741 110.002L64.454 109.961Z" fill="#3E281A"/>
<path d="M85.5345 91.8344C85.092 94.4094 84.3678 96.6195 83.3621 98.4443C82.1954 100.472 80.9483 101.526 79.5402 101.628C79.3793 105.784 80.0431 107.893 81.5115 107.893C83.5833 107.893 85.3937 106.129 87.0431 102.54C87.3448 102.357 87.7069 102.499 88.0489 102.905C88.4109 103.371 88.4512 103.878 88.2098 104.486C87.3448 106.332 86.1983 107.751 84.7299 108.765C83.4224 109.677 82.0144 110.143 80.546 110.143C76.9253 110.143 75.4569 106.413 76.1609 99.012C76.5632 95.0379 77.2672 91.4897 78.3333 88.3875C79.6408 84.6568 81.1092 82.7103 82.7184 82.6089C84.0862 82.5684 85.0316 83.5213 85.4943 85.4272C85.9569 87.1709 85.9569 89.2999 85.5345 91.8749V91.8344ZM79.6006 100.147C80.8678 98.8903 81.9138 95.9504 82.6782 91.3478C83.4224 86.8263 83.4224 84.5757 82.6782 84.5757C82.1753 84.5757 81.5718 86.6641 80.8075 90.9017C80.1437 94.6324 79.7414 97.5927 79.6408 99.7216L79.6006 100.127V100.147Z" fill="#3E281A"/>
<path d="M89.5575 110.042C88.0891 110.042 86.9828 109.211 86.3391 107.548C85.7759 106.028 85.6753 104.183 86.0373 102.054C86.4396 99.8841 87.2442 98.0795 88.4109 96.5994C89.7787 94.9368 91.3276 94.1055 93.1983 94.1055C94.5661 94.1055 95.6121 94.3893 96.3161 95.0179C96.9799 95.5248 97.2213 96.133 97.181 96.9035C97.1408 97.6335 96.819 98.2012 96.2759 98.6067C95.6121 99.073 94.8075 99.1541 93.9023 98.8905C94.204 98.1403 94.2644 97.4104 94.1034 96.7616C93.9425 96.1128 93.6006 95.7884 93.0977 95.7884C91.8305 95.7884 90.8247 97.7348 89.9799 101.607C89.1753 105.48 89.3161 107.427 90.3822 107.427C91.6494 107.427 92.6954 104.994 93.6006 100.148C94.3046 99.9043 95.069 99.9246 95.8736 100.229C96.7385 100.553 97.1408 101.06 97.0805 101.749L96.8391 105.521C96.7385 106.575 96.8391 107.082 97.1408 107.082C97.3822 107.082 97.6839 106.859 98.1063 106.433C99.0718 105.419 99.9167 104.162 100.621 102.601C100.983 102.419 101.325 102.56 101.687 103.007C102.149 103.473 102.19 103.98 101.888 104.568C100.218 108.116 98.2672 109.88 95.9942 109.88C94.727 109.88 93.9827 108.947 93.6207 107.102C92.7557 109.089 91.4483 110.103 89.5977 110.103L89.5575 110.042Z" fill="#3E281A"/>
<path d="M111.624 100.229C111.583 102.662 110.92 104.831 109.713 106.697C108.405 108.765 106.796 109.799 104.825 109.799C101.405 109.799 99.8362 107.082 100.098 101.628C100.46 94.3284 101.405 88.6512 102.874 84.596C103.175 83.6836 103.879 82.9739 104.945 82.4265C106.012 81.8791 106.655 81.8385 106.856 82.3454C104.885 89.4014 103.879 95.8693 103.739 101.81C103.578 105.683 103.98 107.589 104.945 107.589C105.71 107.589 106.454 106.676 107.118 104.872C107.782 103.169 108.124 101.405 108.184 99.5595C106.474 98.9715 105.569 98.0388 105.468 96.7006C105.368 95.3624 106.132 94.7136 107.741 94.7136C109.652 94.7136 110.92 95.8288 111.463 98.0794C113.635 97.9983 115.546 97.4306 117.095 96.3762C117.457 96.3357 117.598 96.5993 117.638 97.167C117.638 97.7752 117.376 98.2821 116.833 98.6066C115.566 99.4379 113.856 99.8636 111.644 99.9042V100.188L111.624 100.229Z" fill="#3E281A"/>
<path d="M117.356 110.042C115.888 110.042 114.782 109.211 114.138 107.548C113.575 106.028 113.474 104.183 113.836 102.054C114.239 99.8841 115.043 98.0795 116.21 96.5994C117.578 94.9368 119.126 94.1055 120.997 94.1055C122.365 94.1055 123.411 94.3893 124.115 95.0179C124.779 95.5248 125.02 96.133 124.98 96.9035C124.94 97.6335 124.618 98.2012 124.075 98.6067C123.411 99.073 122.606 99.1541 121.701 98.8905C122.003 98.1403 122.063 97.4104 121.902 96.7616C121.741 96.1128 121.399 95.7884 120.897 95.7884C119.629 95.7884 118.624 97.7348 117.779 101.607C116.974 105.48 117.115 107.427 118.181 107.427C119.448 107.427 120.494 104.994 121.399 100.148C122.103 99.9043 122.868 99.9246 123.672 100.229C124.537 100.553 124.94 101.06 124.879 101.749L124.638 105.521C124.537 106.575 124.638 107.082 124.94 107.082C125.181 107.082 125.483 106.859 125.905 106.433C126.871 105.419 127.716 104.162 128.42 102.601C128.782 102.419 129.124 102.56 129.486 103.007C129.948 103.473 129.989 103.98 129.687 104.568C128.017 108.116 126.066 109.88 123.793 109.88C122.526 109.88 121.782 108.947 121.42 107.102C120.555 109.089 119.247 110.103 117.397 110.103L117.356 110.042Z" fill="#3E281A"/>
<path d="M28.3276 122.086C28.3879 122.208 28.4282 122.35 28.4483 122.492C28.4483 122.633 28.4282 122.735 28.3075 122.836C28.227 122.938 28.1465 123.019 28.0259 123.059C27.9052 123.1 27.8046 123.14 27.6839 123.161C27.5632 123.201 27.4626 123.242 27.3419 123.262L27 123.363C26.5575 123.505 26.1149 123.586 25.6523 123.647C25.1896 123.708 24.7471 123.708 24.2845 123.688C24.204 123.688 24.1437 123.668 24.0833 123.607C24.023 123.546 24.0029 123.485 24.0029 123.404C24.0029 123.343 24.023 123.282 24.0833 123.221C24.1437 123.181 24.204 123.161 24.2845 123.161C24.5057 123.161 24.7069 123.161 24.908 123.161C25.1092 123.161 25.3304 123.161 25.5517 123.12C25.7529 123.12 25.954 123.08 26.135 123.019C26.3362 122.978 26.5373 122.938 26.7385 122.877C26.8391 122.856 26.9396 122.836 27.0402 122.796C27.1408 122.755 27.2414 122.735 27.3419 122.694C27.3822 122.674 27.4425 122.654 27.5029 122.633C27.5632 122.633 27.6034 122.593 27.6638 122.573L27.8046 122.532H27.8448C27.8448 122.532 27.9052 122.492 27.9052 122.471C27.9052 122.431 27.9052 122.41 27.885 122.39C27.885 122.39 27.885 122.39 27.885 122.35C27.8448 122.309 27.8448 122.289 27.8448 122.248C27.7644 122.127 27.6839 121.985 27.5833 121.863V121.822L27.5431 121.782C27.5431 121.782 27.5029 121.762 27.4827 121.741C27.4626 121.721 27.4425 121.721 27.4224 121.701C27.4023 121.66 27.3822 121.62 27.3621 121.599C27.3419 121.559 27.3017 121.539 27.2816 121.498C27.2213 121.437 27.1609 121.397 27.0804 121.336H27.0201V121.295C27.0201 121.295 26.9598 121.234 26.9195 121.214C26.8391 121.174 26.7787 121.113 26.7184 121.072C26.658 121.032 26.5776 120.991 26.5172 120.951C26.4971 120.951 26.477 120.951 26.477 120.951C26.477 120.951 26.4569 120.951 26.4368 120.951H26.3965C26.3965 120.951 26.3563 120.91 26.3161 120.91C26.2557 120.89 26.2155 120.869 26.1954 120.869C26.1552 120.869 26.1149 120.869 26.0747 120.829C25.9942 120.788 25.9138 120.788 25.8132 120.788C25.7931 120.788 25.7529 120.748 25.7126 120.748H25.6322C25.6322 120.748 25.4713 120.748 25.3908 120.728C25.3103 120.728 25.2299 120.728 25.1494 120.728C25.1092 120.728 25.0891 120.728 25.069 120.728H24.9483C24.9483 120.728 24.8678 120.768 24.8276 120.768C24.7873 120.768 24.7471 120.768 24.727 120.809C24.6264 120.809 24.5259 120.869 24.4454 120.91H24.4052C24.4052 120.91 24.3247 120.971 24.3046 120.991C24.2644 121.011 24.2442 121.032 24.204 121.052C24.1638 121.052 24.1236 121.092 24.0833 121.133C24.0431 121.153 24.0029 121.174 23.9827 121.194H23.9425C23.9425 121.194 23.9425 121.234 23.9023 121.234L23.7414 121.397C23.7414 121.397 23.6408 121.518 23.5804 121.579C23.5603 121.579 23.5402 121.579 23.5402 121.62C23.5402 121.62 23.5402 121.64 23.5402 121.66C23.5201 121.66 23.5 121.68 23.5 121.701C23.5 121.701 23.5 121.721 23.4799 121.741C23.4598 121.782 23.4396 121.802 23.4195 121.843C23.3994 121.883 23.3592 121.904 23.3391 121.944C23.2988 121.985 23.2787 122.066 23.2385 122.167C23.2184 122.208 23.1983 122.228 23.1983 122.248V122.289L23.158 122.329C23.158 122.329 23.1178 122.471 23.1178 122.512L23.0776 122.674C23.0776 122.938 23.0977 123.181 23.1178 123.444C23.1178 123.708 23.158 123.972 23.1983 124.215C23.1983 124.276 23.1983 124.337 23.158 124.377C23.1178 124.418 23.0776 124.438 23.0172 124.458C22.9569 124.458 22.8965 124.458 22.8362 124.458C22.7759 124.458 22.7356 124.397 22.6954 124.337C22.6552 124.256 22.635 124.174 22.6149 124.093C22.5948 124.012 22.5747 123.931 22.5546 123.85C22.4942 123.627 22.4741 123.424 22.4942 123.242C22.4942 123.039 22.5144 122.836 22.5546 122.633C22.5546 122.512 22.5546 122.39 22.5546 122.268C22.5546 122.147 22.5546 122.025 22.5345 121.904C22.4741 120.93 22.454 119.977 22.4741 119.004C22.4741 118.031 22.5144 117.058 22.5948 116.064C22.6149 116.003 22.6552 115.942 22.6954 115.882C22.7356 115.841 22.796 115.821 22.8965 115.821C22.9569 115.821 23.0172 115.841 23.0776 115.882C23.1379 115.922 23.158 115.983 23.1379 116.064C23.0977 116.47 23.0776 116.855 23.0776 117.24C23.0776 117.625 23.0575 118.011 23.0373 118.396C23.0172 118.923 23.0172 119.45 23.0373 119.977C23.0373 120.504 23.0575 121.032 23.0776 121.579C23.2385 121.336 23.4396 121.113 23.6609 120.93C23.8822 120.748 24.1236 120.586 24.385 120.484C24.727 120.363 25.069 120.281 25.4109 120.302C25.773 120.302 26.1149 120.363 26.4368 120.484C26.7787 120.606 27.0804 120.768 27.3621 120.971C27.6437 121.194 27.885 121.437 28.0862 121.721C28.1868 121.883 28.2672 122.025 28.3075 122.147L28.3276 122.086Z" fill="#412B1B"/>
<path d="M36.4741 120.707C36.4741 120.707 36.5948 120.788 36.5948 120.87C36.5948 120.951 36.5948 121.011 36.5546 121.072C36.5143 121.133 36.454 121.194 36.3937 121.194C36.3333 121.194 36.2529 121.194 36.1925 121.153H36.1523C36.1523 121.153 36.0919 121.113 36.0718 121.113C36.0316 121.093 36.0115 121.072 35.9712 121.072C35.931 121.072 35.9109 121.072 35.8908 121.032C35.8304 121.011 35.7701 120.991 35.7097 120.971C35.6494 120.971 35.5891 120.93 35.5287 120.91C35.2873 120.849 35.0661 120.809 34.8649 120.768H34.7845C34.7845 120.768 34.7442 120.768 34.704 120.768C34.6638 120.768 34.6437 120.768 34.6034 120.768C34.5632 120.768 34.5431 120.768 34.5028 120.768C34.4425 120.768 34.4023 120.768 34.3419 120.768C34.2816 120.768 34.2212 120.768 34.181 120.768C33.9396 120.768 33.7184 120.768 33.4971 120.809H33.4166C33.4166 120.809 33.3563 120.829 33.3362 120.849C33.296 120.849 33.2758 120.849 33.2557 120.849C33.2356 120.849 33.2155 120.849 33.1954 120.849C33.135 120.849 33.0948 120.89 33.0345 120.89C32.9741 120.89 32.9339 120.89 32.8735 120.93C32.7529 120.971 32.6523 120.991 32.5517 121.032C32.4511 121.072 32.3506 121.093 32.25 121.133C32.25 121.133 32.2299 121.133 32.2097 121.133C32.2097 121.133 32.1896 121.133 32.1695 121.133L32.1092 121.174C32.1092 121.174 32.0086 121.214 31.9684 121.234C31.8879 121.275 31.8074 121.316 31.727 121.356C31.6666 121.376 31.6264 121.397 31.6063 121.437C31.5661 121.478 31.5258 121.498 31.4856 121.539C31.4454 121.559 31.4052 121.579 31.385 121.62C31.385 121.62 31.3649 121.62 31.3448 121.66C31.3448 121.66 31.3448 121.66 31.3046 121.66C31.1638 121.782 31.0431 121.904 30.9023 122.066C30.9023 122.066 30.9023 122.086 30.8822 122.106C30.862 122.127 30.8822 122.127 30.8822 122.127L30.8419 122.167C30.8419 122.167 30.8017 122.208 30.8017 122.228L30.7615 122.289L30.6207 122.512C30.6207 122.512 30.6207 122.532 30.6207 122.552C30.6207 122.573 30.6207 122.573 30.6207 122.552V122.593C30.6207 122.593 30.6006 122.654 30.5804 122.715C30.5603 122.775 30.5402 122.816 30.5402 122.857V122.998V123.039H30.5603C30.5603 123.039 30.5603 123.08 30.6006 123.1C30.6006 123.12 30.6408 123.14 30.6408 123.161L30.681 123.201C30.681 123.201 30.7212 123.222 30.7212 123.242C30.7212 123.242 30.7414 123.262 30.7615 123.282H30.8218C30.8218 123.282 30.8218 123.323 30.862 123.323C30.862 123.323 30.862 123.323 30.9023 123.323C30.9023 123.323 30.9023 123.323 30.9425 123.323H31.1839C31.1839 123.323 31.2241 123.323 31.2845 123.323C31.4052 123.303 31.5057 123.262 31.6063 123.221C31.7069 123.181 31.8276 123.14 31.9281 123.1C31.9885 123.1 32.0287 123.059 32.0891 123.039C32.1494 123.039 32.1896 122.998 32.25 122.978C32.25 122.978 32.3103 122.938 32.3304 122.938C32.3707 122.938 32.4109 122.897 32.4712 122.877C32.5718 122.816 32.6724 122.775 32.773 122.735C32.8735 122.694 32.9741 122.634 33.0747 122.593C33.2758 122.492 33.4569 122.37 33.6379 122.248C33.8189 122.127 34 122.005 34.1609 121.883C34.2011 121.843 34.2615 121.822 34.3017 121.782C34.3419 121.741 34.3822 121.721 34.4425 121.681H34.4827L34.523 121.64C34.523 121.64 34.6235 121.559 34.6437 121.539C34.7241 121.458 34.8046 121.397 34.885 121.336C34.9655 121.275 35.046 121.194 35.1264 121.113C35.1868 121.052 35.2672 121.032 35.3477 121.032C35.4281 121.032 35.5086 121.072 35.5488 121.153C35.6695 121.376 35.7299 121.599 35.7097 121.843C35.7097 122.086 35.6896 122.309 35.6695 122.552V122.917C35.6695 123.039 35.6695 123.161 35.6695 123.282C35.6695 123.505 35.7097 123.728 35.7701 123.972C35.7701 124.033 35.7701 124.114 35.75 124.174C35.7097 124.235 35.6695 124.276 35.5891 124.296C35.5086 124.316 35.4483 124.296 35.3879 124.276C35.3276 124.235 35.2873 124.195 35.2672 124.114C35.1465 123.627 35.1063 123.12 35.1264 122.613L35.1666 122.269C35.1666 122.147 35.1666 122.046 35.1666 121.924V121.762C34.7241 122.127 34.2816 122.451 33.7988 122.755C33.3161 123.059 32.8333 123.303 32.3103 123.526C32.2097 123.566 32.1092 123.607 32.0086 123.647C31.908 123.688 31.8074 123.728 31.6868 123.769C31.5661 123.809 31.4655 123.85 31.3247 123.87C31.1839 123.891 31.0632 123.911 30.9425 123.87C30.7011 123.85 30.5 123.769 30.2988 123.627C30.0977 123.485 29.9971 123.282 29.977 123.019C29.977 122.917 29.977 122.796 30.0172 122.674C30.0574 122.552 30.0977 122.451 30.1379 122.329C30.1781 122.228 30.2184 122.147 30.2586 122.086C30.2988 122.005 30.3592 121.924 30.4195 121.843C30.5603 121.66 30.7011 121.518 30.8419 121.376C31.0029 121.255 31.1638 121.133 31.3247 121.011C31.7069 120.768 32.0891 120.606 32.5115 120.464C32.9339 120.342 33.3563 120.261 33.7988 120.241C34.2414 120.241 34.6839 120.241 35.1063 120.342C35.5488 120.423 35.9712 120.545 36.3735 120.728L36.4741 120.707Z" fill="#412B1B"/>
<path d="M39.3908 123.85C39.3908 123.85 39.5718 123.85 39.6322 123.931C39.7529 124.053 39.7529 124.174 39.6322 124.316L39.5115 124.479C39.5115 124.479 39.431 124.58 39.3707 124.641C39.3304 124.702 39.2701 124.722 39.2098 124.722C39.1494 124.722 39.0891 124.722 39.0488 124.681C38.9684 124.641 38.9281 124.56 38.908 124.458C38.8477 124.053 38.8075 123.668 38.7672 123.262C38.727 122.857 38.6868 122.471 38.6465 122.066C38.4253 120.079 38.2241 118.071 38.0632 116.044C38.0632 115.963 38.0632 115.902 38.1437 115.841C38.2241 115.78 38.2644 115.76 38.3448 115.76C38.4253 115.76 38.4856 115.78 38.5258 115.841C38.5661 115.902 38.5862 115.963 38.6063 116.044C38.6465 116.449 38.6868 116.835 38.7069 117.24C38.7471 117.646 38.7672 118.031 38.8075 118.436C38.908 119.369 38.9885 120.261 39.0891 121.174C39.1896 122.066 39.2902 122.978 39.3908 123.891V123.85ZM44.7615 122.573C44.7615 122.573 44.9023 122.593 44.9425 122.654C44.9827 122.715 45.023 122.775 45.023 122.857C45.023 122.938 45.0029 122.998 44.9425 123.039C44.8822 123.1 44.8218 123.12 44.7615 123.12C44.3592 123.12 43.977 123.08 43.5747 123.059C43.1724 123.019 42.7902 122.978 42.408 122.917C42.0258 122.877 41.6437 122.816 41.2816 122.735C41.181 122.715 41.0804 122.694 41 122.674C40.9195 122.654 40.8189 122.633 40.7184 122.613C40.6379 122.593 40.5575 122.573 40.4971 122.573C40.4368 122.573 40.3563 122.532 40.2758 122.512C40.1954 122.471 40.1149 122.451 40.0143 122.39C39.9138 122.35 39.8534 122.289 39.7931 122.208C39.6121 122.005 39.5718 121.782 39.6523 121.559C39.7126 121.437 39.773 121.356 39.8333 121.275C39.8937 121.194 39.9741 121.113 40.0546 121.032C40.1552 120.951 40.2356 120.87 40.3161 120.809C40.3965 120.748 40.4971 120.667 40.5977 120.606C41.3017 120.079 42.0862 119.714 42.931 119.47C43.0115 119.47 43.0919 119.47 43.1523 119.491C43.2126 119.531 43.2529 119.572 43.273 119.653C43.273 119.734 43.273 119.795 43.2529 119.856C43.2126 119.917 43.1724 119.957 43.0919 119.977C42.9511 120.018 42.8103 120.058 42.6695 120.119C42.5287 120.18 42.3879 120.221 42.2471 120.282C42.227 120.282 42.2069 120.302 42.1868 120.322L42.0661 120.363L41.885 120.464L41.704 120.565C41.704 120.565 41.5833 120.626 41.523 120.667C41.2615 120.809 41.0201 120.971 40.7787 121.133C40.7787 121.153 40.7385 121.174 40.7385 121.174C40.7385 121.174 40.7184 121.174 40.6983 121.214C40.6983 121.214 40.658 121.214 40.6379 121.255C40.5776 121.295 40.5172 121.336 40.477 121.376C40.4167 121.437 40.3764 121.478 40.3362 121.498C40.296 121.518 40.2557 121.579 40.2155 121.62C40.2155 121.62 40.2155 121.64 40.2155 121.66L40.1753 121.701V121.741V121.782V121.863V121.904C40.1753 121.904 40.1753 121.904 40.2155 121.924C40.2155 121.924 40.2155 121.924 40.2155 121.944C40.2155 121.944 40.2356 121.944 40.2557 121.944H40.296C40.296 121.944 40.296 121.985 40.3362 121.985C40.3362 122.005 40.3764 122.025 40.3764 122.025C40.3764 122.025 40.4167 122.025 40.4368 122.045C40.4368 122.045 40.477 122.045 40.4971 122.066C40.6178 122.106 40.7184 122.127 40.819 122.147C40.9195 122.167 41.0201 122.187 41.1408 122.208L41.8649 122.35C42.8103 122.512 43.7758 122.593 44.7615 122.633V122.573Z" fill="#412B1B"/>
<path d="M51.5805 120.869C51.5805 120.869 51.5805 121.032 51.5603 121.092C51.5201 121.153 51.4799 121.194 51.3994 121.214C51.2787 121.255 51.1782 121.275 51.0977 121.315C50.9971 121.356 50.8965 121.376 50.796 121.417L50.6351 121.478L50.4741 121.538C50.4741 121.538 50.3534 121.579 50.3132 121.599C50.3132 121.599 50.2931 121.599 50.273 121.599H50.2328C50.0316 121.701 49.8305 121.782 49.6494 121.883C49.4684 121.984 49.2874 122.086 49.1063 122.187C48.8851 122.309 48.704 122.41 48.5431 122.532L48.2615 122.714C48.2615 122.714 48.1609 122.775 48.1408 122.816C48.1207 122.816 48.1006 122.836 48.0805 122.856C48.0603 122.856 48.0603 122.856 48.0805 122.856C48 122.917 47.9397 122.978 47.8793 123.059L47.8391 123.14C47.8391 123.14 47.8391 123.16 47.8391 123.181C47.8391 123.181 47.8391 123.201 47.8391 123.221C47.8391 123.221 47.8391 123.282 47.8391 123.323C47.8391 123.343 47.8391 123.363 47.8391 123.384V123.424C47.8391 123.424 47.8391 123.444 47.8391 123.465C47.8391 123.465 47.8391 123.485 47.8391 123.505C47.8391 123.505 47.8994 123.607 47.8994 123.627C47.9397 123.647 47.9598 123.688 48 123.728H48.0402V123.769C48.0402 123.769 48.2011 123.87 48.2816 123.911C48.2816 123.931 48.3218 123.951 48.342 123.951C48.3621 123.951 48.3822 123.951 48.4023 123.992C48.4023 123.992 48.4224 123.992 48.4425 123.992H48.4828C48.4828 123.992 48.6638 124.073 48.7241 124.093C48.7845 124.113 48.8247 124.134 48.8851 124.134C48.8851 124.134 48.9253 124.134 48.9454 124.134C48.9454 124.134 49.0661 124.134 49.227 124.134C49.2874 124.134 49.3276 124.134 49.3879 124.134H49.4684C49.4684 124.134 49.569 124.134 49.6092 124.113C49.6494 124.113 49.6896 124.113 49.7299 124.073C49.8103 124.053 49.8707 124.073 49.931 124.093C49.9914 124.134 50.0316 124.174 50.0517 124.255C50.092 124.438 50.0115 124.539 49.8506 124.6C49.75 124.62 49.6695 124.641 49.569 124.661C49.4684 124.681 49.3678 124.701 49.2672 124.701C48.8649 124.701 48.4828 124.62 48.1207 124.458C47.7586 124.276 47.4569 124.032 47.2155 123.708C46.9741 123.384 46.8333 122.998 46.773 122.572C46.7126 122.147 46.773 121.741 46.9339 121.376C47.0144 121.173 47.1149 120.971 47.2557 120.788C47.3764 120.606 47.5374 120.444 47.7184 120.281C47.8793 120.119 48.0603 119.997 48.2414 119.856C48.4224 119.714 48.6236 119.633 48.8448 119.592C49.046 119.551 49.2471 119.531 49.4684 119.551C49.6897 119.592 49.8707 119.673 50.0517 119.815C50.2328 119.937 50.3534 120.119 50.454 120.302C50.5546 120.484 50.5747 120.707 50.5345 120.93C50.5345 120.93 50.5345 120.95 50.5345 120.971C50.5345 120.991 50.5345 120.991 50.5345 121.011C50.6552 120.95 50.796 120.91 50.9167 120.869C51.0374 120.829 51.1782 120.788 51.2988 120.748C51.3592 120.748 51.4397 120.748 51.5 120.768C51.5603 120.809 51.6006 120.849 51.6207 120.93L51.5805 120.869ZM48.7644 121.782C49.227 121.498 49.6897 121.275 50.1925 121.072C50.0316 121.011 49.9713 120.91 50.0115 120.727V120.585C50.0115 120.585 50.0115 120.525 49.9713 120.484C49.9713 120.484 49.9713 120.464 49.9713 120.444C49.9713 120.423 49.9713 120.403 49.931 120.383C49.931 120.362 49.931 120.342 49.8908 120.322L49.7902 120.221L49.75 120.18C49.75 120.18 49.6695 120.119 49.6494 120.099L49.5488 120.058H49.5086C49.5086 120.058 49.4885 120.058 49.4684 120.058H49.4282C49.4282 120.058 49.3879 120.038 49.3678 120.038C49.3477 120.038 49.3276 120.038 49.3075 120.038C49.3075 120.038 49.3075 120.038 49.2672 120.038H48.9856C48.9856 120.038 48.9052 120.079 48.8649 120.079C48.8247 120.079 48.7845 120.079 48.7442 120.119C48.7442 120.119 48.7241 120.119 48.704 120.119C48.704 120.119 48.6839 120.119 48.6638 120.139H48.6236C48.6236 120.139 48.5833 120.18 48.5632 120.2L48.5029 120.241C48.5029 120.241 48.4224 120.302 48.3621 120.342C48.3017 120.383 48.2816 120.403 48.2615 120.423C48.2414 120.423 48.2213 120.444 48.2011 120.464C48.1609 120.484 48.1207 120.525 48.0805 120.565C48.0402 120.606 48.0201 120.626 47.9799 120.667C47.9397 120.707 47.9195 120.727 47.8793 120.768C47.8391 120.809 47.7988 120.849 47.7787 120.89C47.7385 120.93 47.7184 120.971 47.6782 121.011C47.6782 121.011 47.658 121.072 47.6379 121.092C47.6178 121.113 47.5977 121.133 47.5977 121.153L47.5575 121.214C47.5575 121.214 47.4569 121.356 47.4368 121.437V121.478C47.4368 121.478 47.3965 121.498 47.3965 121.518C47.3965 121.538 47.3965 121.538 47.3965 121.559C47.3965 121.599 47.3965 121.62 47.3563 121.66C47.3362 121.721 47.3161 121.822 47.296 121.944V121.984V122.045V122.329C47.296 122.329 47.296 122.431 47.296 122.491C47.296 122.512 47.296 122.532 47.296 122.532C47.296 122.532 47.296 122.532 47.296 122.572C47.296 122.613 47.296 122.654 47.3362 122.714C47.3362 122.735 47.3362 122.755 47.3362 122.775C47.3362 122.796 47.3362 122.816 47.3362 122.836C47.3965 122.735 47.477 122.654 47.5575 122.552C47.6379 122.471 47.7184 122.39 47.819 122.329C47.9195 122.268 48 122.208 48.1006 122.147C48.2011 122.086 48.2816 122.005 48.3822 121.964C48.4828 121.903 48.5833 121.843 48.6839 121.782H48.7644Z" fill="#412B1B"/>
<path d="M58.0776 119.815C58.0776 119.815 58.0776 119.937 58.0374 119.998C57.9971 120.058 57.9569 120.099 57.8764 120.119C57.5747 120.18 57.2931 120.221 57.0316 120.281C56.75 120.342 56.4885 120.403 56.2069 120.464C56.0661 120.525 55.9253 120.565 55.7845 120.586C55.6437 120.626 55.523 120.667 55.4023 120.707C55.3218 120.727 55.2615 120.748 55.2012 120.768C55.1408 120.788 55.0603 120.829 55 120.849C54.9799 120.849 54.9598 120.869 54.9195 120.89C54.8793 120.91 54.8592 120.91 54.819 120.93C54.819 120.93 54.819 120.95 54.819 120.971C54.7989 120.971 54.7787 120.971 54.7787 120.971C54.7787 120.971 54.7586 120.971 54.7385 120.971C54.6983 121.032 54.658 121.052 54.5977 121.052L54.5575 121.092L54.5172 121.133C54.5172 121.133 54.477 121.153 54.477 121.174C54.477 121.174 54.477 121.194 54.4368 121.214V121.255C54.4368 121.255 54.3966 121.255 54.3966 121.295C54.4971 121.559 54.5977 121.802 54.6983 122.045C54.7989 122.289 54.9195 122.532 55.0201 122.775C55.2012 123.161 55.4023 123.546 55.6034 123.931C55.8046 124.316 56.0057 124.681 56.227 125.046C56.2874 125.168 56.2672 125.289 56.1466 125.391C55.9856 125.452 55.8851 125.411 55.8046 125.289C55.4828 124.783 55.2011 124.337 54.9799 123.931C54.7385 123.526 54.5374 123.14 54.3563 122.755C54.1753 122.37 54.0144 121.944 53.8534 121.498C53.6925 121.052 53.5517 120.545 53.3908 119.957C53.3707 119.896 53.3908 119.835 53.3908 119.774C53.3908 119.714 53.4713 119.673 53.5517 119.653C53.6121 119.653 53.6724 119.653 53.7328 119.673C53.773 119.714 53.8333 119.754 53.8736 119.835C53.9339 119.957 53.9741 120.058 53.9943 120.119C54.0144 120.18 54.0345 120.2 54.0345 120.221C54.0345 120.241 54.0345 120.261 54.0345 120.281C54.0345 120.302 54.0345 120.362 54.0546 120.423C54.0546 120.484 54.0747 120.545 54.1149 120.606C54.1351 120.667 54.1552 120.727 54.1753 120.788C54.3362 120.667 54.4971 120.565 54.6782 120.504C54.8592 120.444 55.0402 120.362 55.2213 120.281C56.0862 119.998 56.931 119.795 57.796 119.653C57.8563 119.653 57.9167 119.653 57.977 119.653C58.0374 119.693 58.0776 119.734 58.0977 119.815H58.0776Z" fill="#412B1B"/>
<path d="M67.4109 127.297C67.4109 127.52 67.4109 127.723 67.3707 127.946C67.3103 128.169 67.2098 128.351 67.0287 128.493C66.8678 128.615 66.6868 128.716 66.5057 128.777C66.3046 128.838 66.1236 128.878 65.9224 128.899C65.4397 128.98 64.9569 129 64.454 128.98C63.9511 128.96 63.4684 128.899 62.9856 128.818C62.9052 128.818 62.8649 128.757 62.8247 128.696C62.7845 128.635 62.7845 128.554 62.8046 128.493C62.8046 128.412 62.8649 128.351 62.9253 128.331C62.9856 128.29 63.046 128.29 63.1264 128.331C63.2069 128.331 63.2672 128.331 63.3276 128.351C63.3879 128.351 63.4483 128.351 63.5086 128.372C63.75 128.412 63.9914 128.432 64.2328 128.432C64.4741 128.432 64.7155 128.432 64.977 128.432C65.1983 128.432 65.4598 128.432 65.7213 128.392C65.7615 128.392 65.7816 128.392 65.8017 128.392C65.8218 128.392 65.8621 128.392 65.9224 128.392H65.9828C65.9828 128.392 66.0632 128.351 66.1034 128.351C66.1437 128.351 66.1839 128.351 66.2442 128.331L66.3851 128.29L66.4454 128.25H66.4856C66.4856 128.25 66.6264 128.149 66.6667 128.128H66.6868V128.088H66.727V128.047C66.727 128.047 66.7672 128.027 66.7874 128.007V127.986C66.8276 127.946 66.8477 127.905 66.8678 127.865V127.804V127.763C66.8678 127.763 66.8879 127.702 66.8879 127.662V127.338C66.8879 127.338 66.8879 127.236 66.8879 127.175C66.8678 127.054 66.8477 126.952 66.8477 126.851C66.8477 126.75 66.8276 126.628 66.8075 126.526C66.6868 125.655 66.546 124.803 66.3649 123.951C66.1839 123.1 65.9828 122.248 65.7615 121.397L65.5603 121.782C65.5 121.904 65.4195 122.025 65.3592 122.167C65.1782 122.492 64.977 122.816 64.7759 123.14C64.5747 123.465 64.3132 123.749 64.0316 123.992C63.8707 124.134 63.7299 124.235 63.5489 124.337C63.3879 124.438 63.2069 124.519 63.0057 124.56C62.8046 124.621 62.6034 124.641 62.4023 124.641C62.2011 124.641 62 124.621 61.7988 124.56C61.4167 124.458 61.0747 124.276 60.7529 124.012C60.431 123.749 60.2098 123.445 60.0488 123.08C59.8678 122.674 59.7874 122.269 59.7874 121.823C59.7874 121.376 59.8678 120.971 60.0287 120.565C60.0488 120.505 60.0891 120.444 60.1494 120.403C60.2098 120.363 60.2701 120.342 60.3506 120.363C60.4109 120.383 60.4713 120.423 60.5115 120.484C60.5517 120.545 60.5718 120.626 60.5316 120.687C60.4914 120.788 60.4511 120.89 60.431 120.991C60.4109 121.093 60.3707 121.214 60.3506 121.316V121.356V121.437C60.3506 121.437 60.3305 121.539 60.3305 121.599C60.3103 121.701 60.3103 121.802 60.3305 121.883V122.127C60.3506 122.269 60.3707 122.37 60.3908 122.431C60.3908 122.492 60.431 122.532 60.431 122.573C60.431 122.613 60.4511 122.674 60.4713 122.715C60.4713 122.715 60.4713 122.735 60.4713 122.755V122.796L60.5115 122.857C60.5115 122.857 60.5115 122.897 60.5517 122.917C60.5517 122.978 60.592 123.019 60.6322 123.039C60.6724 123.08 60.6925 123.12 60.7328 123.161V123.201C60.7328 123.201 60.7328 123.222 60.7328 123.242C60.7328 123.282 60.773 123.303 60.8333 123.343C60.8736 123.384 60.9138 123.404 60.9339 123.445C60.9741 123.485 60.9943 123.505 61.0345 123.546C61.0345 123.546 61.0345 123.546 61.0546 123.546H61.0747L61.1149 123.586C61.1149 123.586 61.1954 123.647 61.2155 123.668C61.2557 123.708 61.296 123.728 61.3362 123.749C61.3764 123.769 61.4167 123.789 61.477 123.81C61.477 123.81 61.4971 123.81 61.5172 123.85H61.5575C61.5575 123.85 61.5977 123.891 61.6178 123.891C61.6379 123.891 61.658 123.891 61.6782 123.891C61.7385 123.911 61.7787 123.931 61.819 123.931C61.8592 123.931 61.8994 123.951 61.9598 123.972C61.9598 123.972 62 123.972 62.0201 123.972C62.0402 123.972 62.0603 123.972 62.0805 123.972H62.1609C62.1609 123.972 62.2615 123.972 62.3017 123.972H62.4425C62.4425 123.972 62.4828 123.972 62.5029 123.972C62.5029 123.972 62.5431 123.972 62.5632 123.972H62.6034C62.6034 123.972 62.6437 123.972 62.6839 123.972C62.7241 123.972 62.7845 123.972 62.8247 123.931C62.8649 123.931 62.9052 123.911 62.9655 123.891C62.9655 123.891 62.9655 123.891 63.0057 123.891C63.046 123.891 63.0057 123.891 63.046 123.891H63.0862C63.0862 123.891 63.1466 123.85 63.1868 123.83C63.227 123.81 63.2672 123.789 63.3075 123.769C63.3477 123.749 63.3879 123.728 63.4282 123.708C63.4282 123.688 63.4684 123.668 63.4885 123.668C63.5086 123.668 63.5287 123.668 63.5489 123.627L63.5891 123.586C63.7299 123.465 63.8707 123.343 63.9914 123.181C63.9914 123.161 64.0316 123.12 64.092 123.059L64.1322 123.019C64.1322 123.019 64.1925 122.917 64.2126 122.897L64.2931 122.775C64.4138 122.613 64.5144 122.471 64.5948 122.309C64.6954 122.147 64.7759 121.985 64.8764 121.802C64.9971 121.579 65.1178 121.356 65.2385 121.133C65.3592 120.91 65.4799 120.707 65.5805 120.484C65.6408 120.363 65.7213 120.322 65.842 120.342C65.9626 120.363 66.023 120.423 66.0632 120.545C66.1236 120.687 66.1638 120.829 66.1839 120.971C66.2241 121.113 66.2644 121.255 66.3046 121.397C66.4454 121.883 66.5661 122.35 66.6667 122.816C66.7672 123.282 66.8879 123.769 66.9684 124.256C67.0086 124.499 67.069 124.722 67.0891 124.965C67.1293 125.209 67.1695 125.452 67.2098 125.695C67.25 125.938 67.2902 126.182 67.3305 126.425C67.3707 126.668 67.3908 126.912 67.4109 127.175V127.297Z" fill="#412B1B"/>
<path d="M76.5833 123.647C76.6437 123.769 76.6638 123.911 76.6638 124.053C76.6638 124.195 76.6034 124.316 76.4827 124.418C76.3822 124.499 76.2816 124.56 76.181 124.6C76.0603 124.641 75.9598 124.681 75.8391 124.701C75.3764 124.823 74.8937 124.823 74.3908 124.742C74.3103 124.742 74.2701 124.681 74.2299 124.62C74.1896 124.56 74.1695 124.478 74.1896 124.418C74.3103 124.113 74.4914 123.87 74.6724 123.688C74.7328 123.647 74.7931 123.607 74.8534 123.607C74.9138 123.607 74.9942 123.627 75.0345 123.688C75.0747 123.749 75.1149 123.809 75.1149 123.87C75.1149 123.931 75.0948 124.012 75.0345 124.053C75.0144 124.073 74.9942 124.093 74.9741 124.113C74.9741 124.134 74.9339 124.154 74.9138 124.174L74.8736 124.215V124.255H75.2759C75.2759 124.255 75.3563 124.255 75.4167 124.255H75.4971C75.658 124.215 75.819 124.154 76 124.093H76.0603V124.053L76.1207 124.012V123.972V123.931C76.1207 123.931 76.1207 123.911 76.1006 123.89C76.1006 123.85 76.0603 123.809 76.0402 123.789C76.0402 123.789 76.0402 123.789 76.0402 123.769V123.728C76.0402 123.728 75.9799 123.667 75.9397 123.627C75.8793 123.546 75.819 123.465 75.7586 123.404C75.6983 123.343 75.6379 123.282 75.5776 123.221C75.4569 123.079 75.3362 122.937 75.2155 122.816L74.8333 122.431C74.6724 122.268 74.5115 122.106 74.3707 121.903C74.2098 121.701 74.0891 121.498 73.9684 121.315C73.8477 121.133 73.7874 120.91 73.7471 120.687C73.7069 120.464 73.7069 120.241 73.7471 120.038C73.7874 119.835 73.8879 119.653 74.0287 119.511C74.1695 119.349 74.3305 119.268 74.5316 119.207C74.7126 119.146 74.8937 119.146 75.0747 119.207C75.2759 119.247 75.4167 119.349 75.5374 119.491C75.5977 119.551 75.6178 119.612 75.6178 119.693C75.6178 119.774 75.5977 119.835 75.5374 119.876C75.477 119.916 75.4167 119.957 75.3563 119.957C75.296 119.957 75.2155 119.937 75.1753 119.876L75.1351 119.835L75.0948 119.795H75.0747V119.754H75.0144C74.9942 119.754 74.9741 119.754 74.9741 119.754H74.773H74.7327C74.7327 119.754 74.7126 119.754 74.6925 119.754C74.6925 119.754 74.6724 119.754 74.6523 119.774C74.6322 119.774 74.6322 119.774 74.6523 119.774C74.6121 119.774 74.5718 119.815 74.5115 119.856L74.4713 119.896L74.4109 119.957C74.4109 119.957 74.4109 119.957 74.4109 119.977V120.038L74.3707 120.079V120.119C74.3707 120.119 74.3707 120.139 74.3707 120.16C74.3506 120.2 74.3304 120.241 74.3304 120.261C74.3304 120.261 74.3304 120.281 74.3304 120.302V120.545C74.3304 120.545 74.3304 120.565 74.3304 120.586V120.626C74.3304 120.626 74.3305 120.687 74.3506 120.727C74.3506 120.768 74.3506 120.788 74.3707 120.829C74.3707 120.869 74.3908 120.89 74.4109 120.93C74.4109 120.95 74.4109 120.971 74.4109 120.971C74.4109 120.991 74.4109 121.011 74.4109 121.011L74.4713 121.113C74.4713 121.113 74.5115 121.174 74.5316 121.214C74.5316 121.234 74.5718 121.255 74.5718 121.275L74.6121 121.336L74.6523 121.376C74.6523 121.376 74.6925 121.437 74.7126 121.478C74.7328 121.518 74.773 121.538 74.7931 121.579C74.954 121.762 75.0948 121.944 75.2557 122.126C75.4167 122.309 75.5776 122.491 75.7184 122.654C75.7988 122.735 75.8793 122.816 75.9598 122.917C76.0402 123.019 76.1207 123.1 76.2011 123.201C76.2414 123.262 76.2816 123.302 76.3218 123.343C76.3621 123.384 76.4023 123.424 76.4425 123.485C76.4828 123.546 76.5029 123.586 76.5431 123.627C76.5833 123.667 76.6034 123.728 76.6236 123.769L76.5833 123.647Z" fill="#412B1B"/>
<path d="M83.8649 124.012C83.8649 124.012 84.0057 124.033 84.0661 124.093C84.1063 124.154 84.1466 124.215 84.1466 124.296C84.1264 124.58 84.0058 124.803 83.7644 124.945C83.6839 124.985 83.6236 124.985 83.5431 124.965C83.4626 124.945 83.4224 124.904 83.3822 124.844C82.9397 124.033 82.6379 123.181 82.4569 122.309C82.4167 122.41 82.3966 122.492 82.3563 122.593C82.3161 122.694 82.2759 122.775 82.2356 122.857C82.1552 123.019 82.0948 123.161 82.0144 123.323C81.9339 123.485 81.8333 123.627 81.7328 123.749C81.6322 123.891 81.5316 124.012 81.4109 124.114C81.2902 124.215 81.1695 124.316 81.0086 124.397C80.908 124.458 80.8276 124.479 80.7069 124.519C80.6063 124.539 80.4856 124.56 80.3851 124.539C80.1437 124.499 79.9425 124.418 79.7615 124.256C79.5805 124.134 79.4397 123.972 79.3391 123.789C79.2184 123.607 79.1178 123.424 79.0374 123.221C78.977 123.12 78.9368 122.978 78.8563 122.796C78.796 122.613 78.7155 122.431 78.6552 122.248C78.5948 122.066 78.5345 121.883 78.4741 121.701C78.4138 121.518 78.3736 121.376 78.3534 121.255C78.3333 121.133 78.2931 121.032 78.273 120.93C78.2529 120.829 78.2328 120.707 78.2126 120.606C78.2126 120.545 78.2126 120.505 78.2126 120.484C78.2126 120.464 78.2126 120.403 78.2126 120.363C78.1523 120.322 78.1121 120.282 78.0718 120.241C78.0115 120.14 78.0115 120.018 78.0718 119.896C78.1322 119.775 78.2328 119.714 78.3736 119.734C78.5144 119.775 78.6149 119.835 78.6552 119.957C78.6552 119.998 78.6954 120.058 78.7155 120.119C78.7155 120.18 78.7155 120.221 78.7155 120.241L78.7557 120.525L78.8161 120.809C78.8161 120.809 78.8563 120.991 78.8764 121.093C78.8764 121.194 78.9167 121.275 78.9569 121.376C78.9971 121.478 79.0172 121.559 79.0575 121.64C79.0575 121.681 79.0776 121.741 79.1178 121.822C79.1379 121.924 79.1782 122.005 79.2184 122.127C79.2586 122.228 79.2787 122.329 79.319 122.431C79.3592 122.532 79.3592 122.573 79.3793 122.593C79.3793 122.593 79.3793 122.613 79.3793 122.633C79.3793 122.654 79.3793 122.674 79.3793 122.674C79.3793 122.694 79.3994 122.735 79.4195 122.796C79.4598 122.877 79.5201 122.958 79.5402 123.039C79.5805 123.12 79.6207 123.201 79.6609 123.282C79.6609 123.323 79.7011 123.363 79.7213 123.404C79.7414 123.445 79.7615 123.485 79.7816 123.505C79.8218 123.566 79.842 123.607 79.8621 123.607C79.8621 123.627 79.8621 123.647 79.9023 123.647C79.9023 123.688 79.9425 123.728 79.9828 123.769L80.0833 123.87C80.0833 123.87 80.0833 123.87 80.1236 123.87C80.1236 123.87 80.1638 123.891 80.1839 123.911C80.1839 123.911 80.2241 123.911 80.2443 123.951H80.2845C80.2845 123.951 80.3247 123.951 80.3448 123.951C80.3649 123.951 80.3851 123.951 80.4052 123.951H80.546H80.5862C80.5862 123.951 80.6466 123.951 80.7069 123.911C80.7069 123.911 80.727 123.911 80.7471 123.911L80.8075 123.87C80.8075 123.87 80.8477 123.83 80.8678 123.83C80.8879 123.83 80.9081 123.83 80.9282 123.789C80.9282 123.789 80.9483 123.789 80.9684 123.769L81.0086 123.728C81.0086 123.728 81.0489 123.688 81.069 123.688C81.069 123.688 81.1092 123.668 81.1293 123.647C81.1695 123.607 81.2098 123.546 81.2299 123.526C81.2299 123.526 81.2701 123.526 81.2701 123.485V123.445H81.3103C81.3103 123.445 81.3506 123.343 81.3908 123.323C81.431 123.303 81.4512 123.242 81.4713 123.201C81.5316 123.1 81.592 123.019 81.6322 122.917L81.7931 122.613C81.7931 122.613 81.8333 122.552 81.8333 122.532C81.8333 122.512 81.8333 122.471 81.8736 122.451V122.41C81.8736 122.41 81.9138 122.41 81.9138 122.37C81.9138 122.37 81.9138 122.35 81.9138 122.329C81.9339 122.269 81.954 122.228 81.9741 122.167C81.9943 122.106 82.0144 122.066 82.0345 122.005C82.0345 121.944 82.0747 121.883 82.0948 121.782C82.0948 121.681 82.1351 121.579 82.1552 121.478C82.1552 121.376 82.1954 121.275 82.2155 121.174C82.2356 121.072 82.2558 120.991 82.2558 120.93C82.2558 120.809 82.2759 120.707 82.2759 120.606C82.2759 120.505 82.2759 120.383 82.2759 120.282C82.2759 120.2 82.3161 120.14 82.3563 120.099C82.3966 120.058 82.4569 120.018 82.5374 120.018C82.6178 120.018 82.6782 120.038 82.7385 120.099C82.7787 120.16 82.819 120.221 82.819 120.282C82.819 120.383 82.819 120.464 82.819 120.545C82.819 120.626 82.819 120.728 82.8391 120.809C82.8391 120.849 82.8391 120.89 82.8592 120.93C82.8592 120.971 82.8592 121.011 82.8592 121.052V121.153C82.8592 121.153 82.8592 121.194 82.8793 121.255C82.8793 121.316 82.8793 121.376 82.8793 121.437C82.8793 121.498 82.8793 121.559 82.8793 121.62V121.721C82.9195 121.904 82.9397 122.066 82.9799 122.228C83.0201 122.39 83.0603 122.552 83.1006 122.715C83.181 122.978 83.2615 123.221 83.342 123.465C83.4224 123.708 83.523 123.931 83.6236 124.174C83.6839 124.073 83.7443 124.033 83.8448 124.033L83.8649 124.012Z" fill="#412B1B"/>
<path d="M89.658 121.336C89.658 121.336 89.7586 121.498 89.7184 121.599C89.6178 121.924 89.4569 122.187 89.2557 122.431C89.0546 122.674 88.8132 122.897 88.5517 123.08C88.25 123.282 87.9483 123.424 87.6063 123.546C87.2644 123.668 86.9425 123.769 86.6006 123.87C86.5201 123.891 86.4598 123.87 86.3994 123.85C86.3391 123.83 86.2988 123.769 86.2787 123.688C86.2586 123.627 86.2787 123.546 86.2988 123.485C86.3391 123.424 86.3994 123.384 86.4799 123.363C86.6408 123.303 86.7816 123.262 86.9425 123.222C87.1034 123.181 87.2644 123.12 87.4253 123.059C87.4253 123.059 87.4655 123.059 87.4856 123.039C87.4856 123.039 87.5259 123.039 87.546 123.019L87.6063 122.978C87.6063 122.978 87.7471 122.917 87.8276 122.877C87.9684 122.816 88.1092 122.755 88.25 122.654C88.2902 122.634 88.3103 122.613 88.3305 122.593C88.3506 122.573 88.3908 122.552 88.4109 122.532C88.4109 122.532 88.4109 122.532 88.4109 122.492C88.4109 122.492 88.431 122.492 88.4511 122.492C88.4511 122.492 88.4914 122.492 88.4914 122.451C88.4914 122.451 88.4914 122.451 88.5316 122.41C88.6322 122.309 88.7328 122.208 88.8132 122.106L88.8534 122.066V122.025C88.8534 122.025 88.8937 122.005 88.8937 121.985L88.954 121.883L89.0144 121.782C89.0144 121.782 89.0546 121.681 89.0747 121.62C89.0948 121.559 89.0747 121.518 88.9942 121.498C88.9942 121.498 88.9942 121.478 88.9942 121.458C88.9741 121.437 88.9339 121.417 88.8937 121.397C88.8534 121.376 88.8132 121.356 88.7931 121.336C88.7529 121.316 88.7328 121.295 88.6925 121.275C88.6523 121.275 88.6121 121.234 88.5718 121.214C88.5718 121.214 88.5517 121.214 88.5316 121.214H88.4914C88.3305 121.133 88.1695 121.093 88.0086 121.052C87.9885 121.052 87.9684 121.052 87.9684 121.052C87.9684 121.052 87.9483 121.052 87.9282 121.052C87.908 121.052 87.8879 121.052 87.8879 121.052H87.8276C87.8276 121.052 87.7069 121.052 87.6063 121.052H87.4856C87.4856 121.052 87.4052 121.052 87.3649 121.052H87.2443C87.2443 121.052 87.204 121.052 87.1638 121.052C87.1034 121.052 87.0632 121.072 87.0431 121.093C87.0029 121.093 86.9626 121.113 86.9224 121.133C86.8822 121.133 86.8621 121.153 86.8218 121.174C86.7816 121.174 86.7615 121.174 86.7615 121.174L86.6609 121.234L86.5603 121.295L86.5201 121.336C86.5201 121.336 86.5201 121.336 86.5 121.336C86.5 121.336 86.5 121.336 86.4799 121.336C86.4799 121.336 86.4799 121.336 86.4397 121.356H86.3994C86.3994 121.356 86.3592 121.417 86.3592 121.437V121.478C86.3592 121.478 86.3592 121.498 86.3391 121.518V121.559C86.3391 121.559 86.2787 121.599 86.2988 121.599C86.2988 121.62 86.2988 121.64 86.2988 121.66C86.2988 121.681 86.2988 121.701 86.2988 121.721C86.2988 121.782 86.2586 121.822 86.1983 121.843C86.1379 121.883 86.0977 121.904 86.0374 121.904C86.0374 121.944 86.0374 121.985 86.0374 122.025C86.0374 122.532 86.0776 123.039 86.1178 123.526C86.158 124.033 86.1983 124.519 86.2586 125.026C86.2586 125.127 86.2988 125.209 86.2988 125.31C86.2988 125.411 86.2989 125.492 86.319 125.594H86.4195C86.4195 125.594 86.5603 125.614 86.6006 125.655C86.6408 125.695 86.681 125.756 86.681 125.837V126.932C86.681 127.297 86.681 127.662 86.681 128.027C86.681 128.108 86.6609 128.169 86.6006 128.23C86.5402 128.29 86.4799 128.311 86.4195 128.311C86.3592 128.311 86.319 128.311 86.2586 128.25C86.1983 128.209 86.1782 128.169 86.158 128.108C86.0776 127.54 85.9971 126.993 85.9368 126.445C85.8764 125.898 85.796 125.33 85.7356 124.762C85.6954 124.256 85.6351 123.769 85.6149 123.262C85.5747 122.755 85.5546 122.269 85.5546 121.762V121.052C85.5546 120.809 85.5546 120.565 85.5948 120.322C85.5948 120.099 85.6552 119.876 85.7155 119.673C85.7759 119.45 85.8764 119.268 86.0172 119.085C86.0575 119.024 86.1379 119.004 86.1983 119.004C86.2787 119.004 86.3391 119.045 86.3793 119.085C86.4195 119.146 86.4598 119.207 86.4598 119.268C86.4598 119.329 86.4397 119.41 86.3793 119.45V119.491L86.3391 119.531V119.572L86.2787 119.633L86.2385 119.694V119.734V119.775L86.1983 119.815C86.1983 119.815 86.158 119.917 86.158 119.957C86.158 119.998 86.158 120.018 86.1379 120.038C86.1379 120.058 86.1379 120.099 86.1178 120.119V120.221C86.1178 120.221 86.1178 120.322 86.0977 120.383C86.0977 120.444 86.0977 120.484 86.0977 120.545C86.0977 120.646 86.0977 120.728 86.0977 120.829C86.0977 120.93 86.0977 121.011 86.0977 121.113C86.2184 120.971 86.3994 120.849 86.6207 120.748C86.9626 120.586 87.3448 120.525 87.7471 120.525C88.1293 120.525 88.4914 120.606 88.8534 120.748C89.2155 120.89 89.5172 121.093 89.7989 121.376L89.658 121.336Z" fill="#412B1B"/>
<path d="M95.069 121.336C95.069 121.336 95.1695 121.498 95.1293 121.599C95.0287 121.924 94.8678 122.187 94.6667 122.431C94.4655 122.674 94.2241 122.897 93.9626 123.08C93.6609 123.282 93.3592 123.424 93.0172 123.546C92.6753 123.668 92.3534 123.769 92.0115 123.87C91.931 123.891 91.8707 123.87 91.8103 123.85C91.75 123.83 91.7098 123.769 91.6897 123.688C91.6695 123.627 91.6897 123.546 91.7098 123.485C91.75 123.424 91.8103 123.384 91.8908 123.363C92.0517 123.303 92.1925 123.262 92.3535 123.222C92.5144 123.181 92.6753 123.12 92.8362 123.059C92.8362 123.059 92.8764 123.059 92.8965 123.039C92.8965 123.039 92.9368 123.039 92.9569 123.019L93.0172 122.978C93.0172 122.978 93.158 122.917 93.2385 122.877C93.3793 122.816 93.5201 122.755 93.6609 122.654C93.7011 122.634 93.7213 122.613 93.7414 122.593C93.7615 122.573 93.8017 122.552 93.8218 122.532C93.8218 122.532 93.8218 122.532 93.8218 122.492C93.8218 122.492 93.842 122.492 93.8621 122.492C93.8621 122.492 93.9023 122.492 93.9023 122.451C93.9023 122.451 93.9023 122.451 93.9425 122.41C94.0431 122.309 94.1437 122.208 94.2241 122.106L94.2644 122.066V122.025C94.2644 122.025 94.3046 122.005 94.3046 121.985L94.3649 121.883L94.4253 121.782C94.4253 121.782 94.4655 121.681 94.4856 121.62C94.5057 121.559 94.4856 121.518 94.4052 121.498C94.4052 121.498 94.4052 121.478 94.4052 121.458C94.3851 121.437 94.3448 121.417 94.3046 121.397C94.2644 121.376 94.2241 121.356 94.204 121.336C94.1638 121.316 94.1437 121.295 94.1034 121.275C94.0632 121.275 94.023 121.234 93.9828 121.214C93.9828 121.214 93.9626 121.214 93.9425 121.214H93.9023C93.7414 121.133 93.5805 121.093 93.4195 121.052C93.3994 121.052 93.3793 121.052 93.3793 121.052C93.3793 121.052 93.3592 121.052 93.3391 121.052C93.319 121.052 93.2988 121.052 93.2988 121.052H93.2385C93.2385 121.052 93.1178 121.052 93.0172 121.052H92.8965C92.8965 121.052 92.8161 121.052 92.7759 121.052H92.6552C92.6552 121.052 92.6149 121.052 92.5747 121.052C92.5144 121.052 92.4741 121.072 92.454 121.093C92.4138 121.093 92.3736 121.113 92.3333 121.133C92.2931 121.133 92.273 121.153 92.2328 121.174C92.1925 121.174 92.1724 121.174 92.1724 121.174L92.0718 121.234L91.9713 121.295L91.931 121.336C91.931 121.336 91.931 121.336 91.9109 121.336C91.9109 121.336 91.9109 121.336 91.8908 121.336C91.8908 121.336 91.8908 121.336 91.8506 121.356H91.8103C91.8103 121.356 91.7701 121.417 91.7701 121.437V121.478C91.7701 121.478 91.7701 121.498 91.75 121.518V121.559C91.75 121.559 91.6897 121.599 91.7098 121.599C91.7098 121.62 91.7098 121.64 91.7098 121.66C91.7098 121.681 91.7098 121.701 91.7098 121.721C91.7098 121.782 91.6695 121.822 91.6092 121.843C91.5488 121.883 91.5086 121.904 91.4483 121.904C91.4483 121.944 91.4483 121.985 91.4483 122.025C91.4483 122.532 91.4885 123.039 91.5287 123.526C91.569 124.033 91.6092 124.519 91.6695 125.026C91.6695 125.127 91.7098 125.209 91.7098 125.31C91.7098 125.411 91.7098 125.492 91.7299 125.594H91.8305C91.8305 125.594 91.9713 125.614 92.0115 125.655C92.0517 125.695 92.092 125.756 92.092 125.837V126.932C92.092 127.297 92.092 127.662 92.092 128.027C92.092 128.108 92.0718 128.169 92.0115 128.23C91.9511 128.29 91.8908 128.311 91.8305 128.311C91.7701 128.311 91.7299 128.311 91.6695 128.25C91.6092 128.209 91.5891 128.169 91.569 128.108C91.4885 127.54 91.408 126.993 91.3477 126.445C91.2874 125.898 91.2069 125.33 91.1465 124.762C91.1063 124.256 91.046 123.769 91.0259 123.262C90.9856 122.755 90.9655 122.269 90.9655 121.762V121.052C90.9655 120.809 90.9655 120.565 91.0057 120.322C91.0057 120.099 91.0661 119.876 91.1264 119.673C91.1868 119.45 91.2874 119.268 91.4282 119.085C91.4684 119.024 91.5488 119.004 91.6092 119.004C91.6897 119.004 91.75 119.045 91.7902 119.085C91.8305 119.146 91.8707 119.207 91.8707 119.268C91.8707 119.329 91.8506 119.41 91.7902 119.45V119.491L91.75 119.531V119.572L91.6897 119.633L91.6494 119.694V119.734V119.775L91.6092 119.815C91.6092 119.815 91.569 119.917 91.569 119.957C91.569 119.998 91.569 120.018 91.5489 120.038C91.5489 120.058 91.5489 120.099 91.5287 120.119V120.221C91.5287 120.221 91.5287 120.322 91.5086 120.383C91.5086 120.444 91.5086 120.484 91.5086 120.545C91.5086 120.646 91.5086 120.728 91.5086 120.829C91.5086 120.93 91.5086 121.011 91.5086 121.113C91.6293 120.971 91.8103 120.849 92.0316 120.748C92.3736 120.586 92.7557 120.525 93.158 120.525C93.5402 120.525 93.9023 120.606 94.2644 120.748C94.6264 120.89 94.9282 121.093 95.2098 121.376L95.069 121.336Z" fill="#412B1B"/>
<path d="M98.5891 124.276C98.5891 124.276 98.6897 124.357 98.7098 124.438C98.7299 124.519 98.7098 124.6 98.6897 124.661C98.6092 124.803 98.4885 124.823 98.3276 124.762C98.1667 124.702 98.046 124.58 97.9655 124.458C97.8649 124.316 97.7845 124.195 97.7241 124.053C97.6437 123.87 97.5632 123.708 97.5029 123.546C97.4425 123.384 97.3822 123.221 97.3218 123.039C97.1006 122.39 96.9598 121.721 96.8592 121.011C96.7385 120.119 96.7385 119.247 96.8592 118.355C96.9598 117.463 97.181 116.612 97.5029 115.801C97.5833 115.638 97.6839 115.577 97.8448 115.598C97.9052 115.618 97.9655 115.659 98.0057 115.719C98.046 115.78 98.046 115.861 98.046 115.922C97.9253 116.226 97.8247 116.51 97.7443 116.814C97.6437 117.118 97.5833 117.443 97.523 117.767C97.5029 117.848 97.4828 117.929 97.4828 118.011L97.4425 118.254V118.355C97.4425 118.355 97.4425 118.396 97.4224 118.416C97.4224 118.416 97.4224 118.457 97.4224 118.477C97.4224 118.517 97.4224 118.558 97.4224 118.599C97.4224 118.639 97.4224 118.68 97.4224 118.72C97.3822 119.045 97.3822 119.369 97.3822 119.673C97.3822 119.896 97.3822 120.119 97.4023 120.342C97.4224 120.565 97.4425 120.768 97.4626 120.991C97.4626 120.991 97.4626 121.011 97.4626 121.032V121.133C97.4626 121.133 97.4828 121.194 97.4828 121.214C97.4828 121.234 97.4828 121.255 97.4828 121.275C97.4828 121.336 97.4828 121.376 97.5029 121.437C97.5029 121.498 97.5029 121.539 97.5431 121.599C97.5431 121.721 97.5833 121.822 97.6034 121.924C97.6236 122.025 97.6437 122.127 97.6638 122.248C97.7644 122.674 97.9052 123.08 98.0661 123.505C98.0661 123.546 98.1063 123.566 98.1063 123.586V123.627C98.1063 123.647 98.1063 123.668 98.1465 123.708C98.1868 123.749 98.1667 123.769 98.1868 123.789C98.227 123.87 98.2672 123.951 98.3075 124.032C98.3075 124.053 98.3477 124.073 98.3477 124.093C98.3477 124.114 98.3477 124.134 98.3879 124.154C98.3879 124.154 98.3879 124.154 98.4282 124.174L98.4684 124.215C98.4684 124.215 98.4885 124.255 98.5086 124.276C98.5086 124.276 98.5086 124.276 98.5488 124.276L98.6092 124.316C98.6092 124.316 98.6494 124.337 98.6695 124.357L98.5891 124.276Z" fill="#412B1B"/>
<path d="M102.129 123.302C102.129 123.302 102.25 123.363 102.29 123.424C102.33 123.485 102.33 123.546 102.33 123.627C102.29 123.708 102.27 123.789 102.23 123.87C102.19 123.951 102.17 124.032 102.129 124.113C102.069 124.235 101.989 124.296 101.888 124.296C101.787 124.296 101.687 124.255 101.647 124.174C101.325 123.444 101.083 122.714 100.922 121.944C100.762 121.173 100.681 120.383 100.701 119.592C100.701 119.531 100.741 119.47 100.782 119.409C100.822 119.349 100.882 119.328 100.963 119.328C101.023 119.328 101.103 119.349 101.144 119.409C101.204 119.47 101.224 119.531 101.204 119.592C101.204 119.977 101.204 120.362 101.244 120.727C101.284 121.092 101.325 121.457 101.405 121.822C101.445 122.005 101.486 122.187 101.526 122.37C101.566 122.552 101.626 122.735 101.687 122.897C101.727 122.978 101.747 123.059 101.767 123.14C101.787 123.221 101.828 123.302 101.848 123.384C101.928 123.323 102.009 123.282 102.109 123.323L102.129 123.302ZM101.063 117.443C101.063 117.443 100.902 117.382 100.862 117.341C100.802 117.301 100.782 117.24 100.782 117.159C100.782 117.078 100.802 117.017 100.862 116.956C100.902 116.895 100.983 116.875 101.063 116.895C101.103 116.895 101.144 116.895 101.184 116.895C101.224 116.895 101.264 116.895 101.305 116.895C101.405 116.916 101.466 116.956 101.486 116.997C101.546 117.058 101.586 117.118 101.586 117.179C101.586 117.24 101.566 117.321 101.506 117.362C101.445 117.422 101.385 117.443 101.305 117.422C101.264 117.422 101.224 117.422 101.184 117.422C101.144 117.422 101.103 117.422 101.063 117.422V117.443Z" fill="#412B1B"/>
<path d="M108.727 120.869C108.727 120.869 108.727 121.032 108.707 121.092C108.667 121.153 108.626 121.194 108.546 121.214C108.425 121.255 108.325 121.275 108.244 121.315C108.144 121.356 108.043 121.376 107.943 121.417L107.782 121.478L107.621 121.538C107.621 121.538 107.5 121.579 107.46 121.599C107.46 121.599 107.44 121.599 107.42 121.599H107.379C107.178 121.701 106.977 121.782 106.796 121.883C106.615 121.984 106.434 122.086 106.253 122.187C106.032 122.309 105.851 122.41 105.69 122.532L105.408 122.714C105.408 122.714 105.307 122.775 105.287 122.816C105.267 122.816 105.247 122.836 105.227 122.856C105.207 122.856 105.207 122.856 105.227 122.856C105.147 122.917 105.086 122.978 105.026 123.059L104.986 123.14C104.986 123.14 104.986 123.16 104.986 123.181C104.986 123.181 104.986 123.201 104.986 123.221C104.986 123.221 104.986 123.282 104.986 123.323C104.986 123.343 104.986 123.363 104.986 123.384V123.424C104.986 123.424 104.986 123.444 104.986 123.465C104.986 123.465 104.986 123.485 104.986 123.505C104.986 123.505 105.046 123.607 105.046 123.627C105.086 123.647 105.106 123.688 105.147 123.728H105.187V123.769C105.187 123.769 105.348 123.87 105.428 123.911C105.428 123.931 105.468 123.951 105.488 123.951C105.509 123.951 105.529 123.951 105.549 123.992C105.549 123.992 105.569 123.992 105.589 123.992H105.629C105.629 123.992 105.81 124.073 105.871 124.093C105.931 124.113 105.971 124.134 106.032 124.134C106.032 124.134 106.072 124.134 106.092 124.134C106.092 124.134 106.213 124.134 106.374 124.134C106.434 124.134 106.474 124.134 106.534 124.134H106.615C106.615 124.134 106.716 124.134 106.756 124.113C106.796 124.113 106.836 124.113 106.876 124.073C106.957 124.053 107.017 124.073 107.078 124.093C107.138 124.134 107.178 124.174 107.198 124.255C107.238 124.438 107.158 124.539 106.997 124.6C106.897 124.62 106.816 124.641 106.716 124.661C106.615 124.681 106.514 124.701 106.414 124.701C106.011 124.701 105.629 124.62 105.267 124.458C104.905 124.276 104.603 124.032 104.362 123.708C104.121 123.384 103.98 122.998 103.92 122.572C103.859 122.147 103.92 121.741 104.08 121.376C104.161 121.173 104.261 120.971 104.402 120.788C104.523 120.606 104.684 120.444 104.865 120.281C105.026 120.119 105.207 119.997 105.388 119.856C105.569 119.714 105.77 119.633 105.991 119.592C106.193 119.551 106.394 119.531 106.615 119.551C106.836 119.592 107.017 119.673 107.198 119.815C107.379 119.937 107.5 120.119 107.601 120.302C107.701 120.484 107.721 120.707 107.681 120.93C107.681 120.93 107.681 120.95 107.681 120.971C107.681 120.991 107.681 120.991 107.681 121.011C107.802 120.95 107.943 120.91 108.063 120.869C108.184 120.829 108.325 120.788 108.445 120.748C108.506 120.748 108.586 120.748 108.647 120.768C108.707 120.809 108.747 120.849 108.767 120.93L108.727 120.869ZM105.911 121.782C106.374 121.498 106.836 121.275 107.339 121.072C107.178 121.011 107.118 120.91 107.158 120.727V120.585C107.158 120.585 107.158 120.525 107.118 120.484C107.118 120.484 107.118 120.464 107.118 120.444C107.118 120.423 107.118 120.403 107.078 120.383C107.078 120.362 107.078 120.342 107.037 120.322L106.937 120.221L106.897 120.18C106.897 120.18 106.816 120.119 106.796 120.099L106.695 120.058H106.655C106.655 120.058 106.635 120.058 106.615 120.058H106.575C106.575 120.058 106.534 120.038 106.514 120.038C106.494 120.038 106.474 120.038 106.454 120.038C106.454 120.038 106.454 120.038 106.414 120.038H106.132C106.132 120.038 106.052 120.079 106.011 120.079C105.971 120.079 105.931 120.079 105.891 120.119C105.891 120.119 105.871 120.119 105.851 120.119C105.851 120.119 105.83 120.119 105.81 120.139H105.77C105.77 120.139 105.73 120.18 105.71 120.2L105.649 120.241C105.649 120.241 105.569 120.302 105.509 120.342C105.448 120.383 105.428 120.403 105.408 120.423C105.388 120.423 105.368 120.444 105.348 120.464C105.307 120.484 105.267 120.525 105.227 120.565C105.187 120.606 105.167 120.626 105.126 120.667C105.086 120.707 105.066 120.727 105.026 120.768C104.986 120.809 104.945 120.849 104.925 120.89C104.885 120.93 104.865 120.971 104.825 121.011C104.825 121.011 104.805 121.072 104.784 121.092C104.764 121.113 104.744 121.133 104.744 121.153L104.704 121.214C104.704 121.214 104.603 121.356 104.583 121.437V121.478C104.583 121.478 104.543 121.498 104.543 121.518C104.543 121.538 104.543 121.538 104.543 121.559C104.543 121.599 104.543 121.62 104.503 121.66C104.483 121.721 104.463 121.822 104.443 121.944V121.984V122.045V122.329C104.443 122.329 104.443 122.431 104.443 122.491C104.443 122.512 104.443 122.532 104.443 122.532C104.443 122.532 104.443 122.532 104.443 122.572C104.443 122.613 104.443 122.654 104.483 122.714C104.483 122.735 104.483 122.755 104.483 122.775C104.483 122.796 104.483 122.816 104.483 122.836C104.543 122.735 104.624 122.654 104.704 122.552C104.784 122.471 104.865 122.39 104.966 122.329C105.066 122.268 105.147 122.208 105.247 122.147C105.348 122.086 105.428 122.005 105.529 121.964C105.629 121.903 105.73 121.843 105.83 121.782H105.911Z" fill="#412B1B"/>
<path d="M113.152 123.647C113.213 123.769 113.233 123.911 113.233 124.053C113.233 124.195 113.172 124.316 113.052 124.418C112.951 124.499 112.851 124.56 112.75 124.6C112.629 124.641 112.529 124.681 112.408 124.701C111.945 124.823 111.463 124.823 110.96 124.742C110.879 124.742 110.839 124.681 110.799 124.62C110.759 124.56 110.739 124.478 110.759 124.418C110.879 124.113 111.06 123.87 111.241 123.688C111.302 123.647 111.362 123.607 111.422 123.607C111.483 123.607 111.563 123.627 111.603 123.688C111.644 123.749 111.684 123.809 111.684 123.87C111.684 123.931 111.664 124.012 111.603 124.053C111.583 124.073 111.563 124.093 111.543 124.113C111.543 124.134 111.503 124.154 111.483 124.174L111.443 124.215V124.255H111.845C111.845 124.255 111.925 124.255 111.986 124.255H112.066C112.227 124.215 112.388 124.154 112.569 124.093H112.629V124.053L112.69 124.012V123.972V123.931C112.69 123.931 112.69 123.911 112.67 123.89C112.67 123.85 112.629 123.809 112.609 123.789C112.609 123.789 112.609 123.789 112.609 123.769V123.728C112.609 123.728 112.549 123.667 112.509 123.627C112.448 123.546 112.388 123.465 112.328 123.404C112.267 123.343 112.207 123.282 112.147 123.221C112.026 123.079 111.905 122.937 111.784 122.816L111.402 122.431C111.241 122.268 111.08 122.106 110.94 121.903C110.779 121.701 110.658 121.498 110.537 121.315C110.417 121.133 110.356 120.91 110.316 120.687C110.276 120.464 110.276 120.241 110.316 120.038C110.356 119.835 110.457 119.653 110.598 119.511C110.739 119.349 110.899 119.268 111.101 119.207C111.282 119.146 111.463 119.146 111.644 119.207C111.845 119.247 111.986 119.349 112.106 119.491C112.167 119.551 112.187 119.612 112.187 119.693C112.187 119.774 112.167 119.835 112.106 119.876C112.046 119.916 111.986 119.957 111.925 119.957C111.865 119.957 111.784 119.937 111.744 119.876L111.704 119.835L111.664 119.795H111.644V119.754H111.583C111.563 119.754 111.543 119.754 111.543 119.754H111.342H111.302C111.302 119.754 111.282 119.754 111.261 119.754C111.261 119.754 111.241 119.754 111.221 119.774C111.201 119.774 111.201 119.774 111.221 119.774C111.181 119.774 111.141 119.815 111.08 119.856L111.04 119.896L110.98 119.957C110.98 119.957 110.98 119.957 110.98 119.977V120.038L110.94 120.079V120.119C110.94 120.119 110.94 120.139 110.94 120.16C110.92 120.2 110.899 120.241 110.899 120.261C110.899 120.261 110.899 120.281 110.899 120.302V120.545C110.899 120.545 110.899 120.565 110.899 120.586V120.626C110.899 120.626 110.899 120.687 110.92 120.727C110.92 120.768 110.92 120.788 110.94 120.829C110.94 120.869 110.96 120.89 110.98 120.93C110.98 120.95 110.98 120.971 110.98 120.971C110.98 120.991 110.98 121.011 110.98 121.011L111.04 121.113C111.04 121.113 111.08 121.174 111.101 121.214C111.101 121.234 111.141 121.255 111.141 121.275L111.181 121.336L111.221 121.376C111.221 121.376 111.261 121.437 111.282 121.478C111.302 121.518 111.342 121.538 111.362 121.579C111.523 121.762 111.664 121.944 111.825 122.126C111.986 122.309 112.147 122.491 112.287 122.654C112.368 122.735 112.448 122.816 112.529 122.917C112.609 123.019 112.69 123.1 112.77 123.201C112.81 123.262 112.851 123.302 112.891 123.343C112.931 123.384 112.971 123.424 113.011 123.485C113.052 123.546 113.072 123.586 113.112 123.627C113.152 123.667 113.172 123.728 113.193 123.769L113.152 123.647Z" fill="#412B1B"/>
<path d="M17.3448 78.8987C17.3448 78.8987 17.3851 78.9798 17.4052 78.9798C18.8937 79.1014 20.1207 79.3447 21.0058 79.5475C21.4684 79.6692 22.092 79.8111 22.8966 80.095C23.5604 80.318 24.6667 80.7641 25.9339 81.5143C26.5977 81.8995 27.1408 82.2847 27.5431 82.5889C27.6236 82.6294 27.8046 82.7308 28.0058 82.67C28.1264 82.6294 28.2069 82.5483 28.3879 82.2645C28.5489 82.0211 28.6293 81.8792 28.7098 81.717C29.1523 80.7641 30.3592 79.142 31.023 79.0203C31.5259 78.919 31.5661 79.2839 32.3908 79.365C32.6121 79.3853 33.9598 79.5475 34.9454 78.5743C35.6897 77.8443 36.092 76.6278 35.7299 75.5329C35.3879 74.438 34.4627 73.9514 34.2213 73.8095C33.3764 73.3634 32.5718 73.4242 32.1695 73.4445C30.4195 73.5864 28.75 74.7827 28.3678 74.4177C28.3678 74.4177 28.2874 74.3366 28.2471 74.2961C27.6035 73.6473 27.2414 73.2012 26.8592 72.7349C26.8592 72.7349 26.0144 71.6197 24.8678 70.7478C24.6063 70.5451 24.3247 70.3626 24.3247 70.3626C24.2443 70.3018 24.1236 70.2409 24.0431 70.2004C23.5 69.9165 22.6753 69.8963 22.1724 70.1193C22.1724 70.1193 22.0316 70.1801 21.7902 70.2815C21.5891 70.3626 21.4885 70.4031 21.3678 70.4031C21.2471 70.4031 21.1466 70.3626 21.0661 70.322C20.6839 70.1396 20.3822 69.8557 20.2213 69.734C19.9195 69.4705 19.7586 69.3285 19.6379 69.2474C19.1149 68.8622 18.5718 68.8014 18.25 68.7608C17.3649 68.6392 16.681 68.9027 16.4598 68.9838C16.1581 69.1055 15.5948 69.3488 15.1523 69.9165C14.5287 70.7073 14.3276 71.8224 14.6695 72.7754C14.931 73.5459 15.4741 73.992 15.5948 74.0933C16.1178 74.4988 16.3592 74.3975 16.9023 74.8435C17.1035 75.026 17.6264 75.4721 17.7672 76.1615C17.8276 76.4656 17.7672 76.6278 17.546 77.6416C17.4454 78.0674 17.4454 78.1688 17.4454 78.1688C17.4454 78.2701 17.4052 78.3715 17.3649 78.5337C17.3247 78.6554 17.3247 78.6959 17.3247 78.6959C17.3247 78.6959 17.2644 78.777 17.3046 78.8581L17.3448 78.8987Z" fill="#3D281A"/>
<path d="M136.305 59.6163C136.466 58.9877 136.687 58.0348 136.988 56.8993L144.21 58.0753C144.21 58.0753 144.431 58.1361 144.612 57.9942C144.733 57.8928 144.773 57.7712 144.773 57.7306C149.42 36.9683 152.779 22.0047 152.96 21.3762C152.98 21.2951 153.101 20.9504 152.92 20.6868C152.799 20.5246 152.598 20.4435 152.397 20.4232C150.063 19.9163 143.445 18.5579 137.25 17.9902C135.782 17.8482 133.549 17.686 131.739 19.085C130.632 19.9366 130.069 21.0721 129.787 21.8628C127.374 32.609 124.98 43.3348 122.566 54.081C122.566 54.1013 122.506 54.2635 122.586 54.4257C122.667 54.5473 122.787 54.5879 122.807 54.6082L129.868 55.7436C129.546 57.3251 128.761 61.0558 127.876 64.5635C127.555 65.8206 127.193 67.1994 126.629 68.8823C126.348 69.7339 126.086 70.4232 125.885 70.9504H115.828C115.747 70.5246 115.647 69.9569 115.566 69.2878C115.466 68.5579 115.244 66.7736 115.244 63.7525C115.244 62.0899 115.305 59.9407 115.566 57.4062C118.443 54.6284 120.575 47.9577 121.017 43.0713C121.359 39.2594 120.635 36.9277 120.213 35.8531C119.931 35.1029 117.256 28.2902 112.73 28.3308C108.264 28.3713 105.69 35.0421 105.408 35.7923C105.046 36.7249 104.141 39.3811 104.603 43.6795C105.126 48.3429 107.239 54.6893 110.055 57.4062C110.356 59.8393 110.457 61.9277 110.457 63.5498C110.457 66.7736 110.135 68.8215 110.055 69.3284C109.954 69.9975 109.833 70.5449 109.733 70.9707H99.273C98.9713 70.2408 98.75 69.6122 98.6092 69.1661C98.0259 67.3413 97.7845 65.8206 97.6034 64.6244C97.5029 63.935 97.4023 63.2253 97.3218 62.6374C97.2011 61.7655 97.1207 61.0356 97.0603 60.5287L89.9598 61.1167C90.4828 64.6041 90.8851 67.0372 91.1465 68.1929C91.2069 68.4362 91.3678 69.0648 91.2672 69.8758C91.227 70.3016 91.1063 70.6665 91.0057 70.9707H82.477C81.2098 70.9707 80.1638 72.0047 80.1638 73.3024C80.1638 74.5798 81.1897 75.6341 82.477 75.6341H138.859C139.443 79.8515 139.583 83.4403 139.563 86.1167C139.523 92.5644 139.503 98.9309 136.083 105.764C135.198 107.548 133.589 110.711 130.25 113.753C126.871 116.855 123.351 118.315 121.198 119.024C120.333 119.774 120.052 120.991 120.494 122.045C120.917 123.059 121.943 123.708 123.029 123.647C126.267 122.633 132.603 120.139 137.713 114.016C140.851 110.265 142.259 106.636 143.103 104.446C145.678 97.7144 145.678 91.9561 145.638 86.6236C145.598 83.3389 145.316 78.7363 144.17 73.2821C144.17 72.0047 143.144 70.9504 141.856 70.9504C141.615 70.9099 141.353 70.9099 141.112 70.9504H134.414C134.414 70.5652 134.454 70.0177 134.514 69.3486C134.816 65.6382 135.52 62.6982 136.264 59.596L136.305 59.6163ZM136.767 54.2837L138.638 45.1191C138.698 44.8758 138.92 44.7136 139.181 44.7541C139.422 44.815 139.583 45.038 139.543 45.3016L137.672 54.4662C137.612 54.7095 137.391 54.8717 137.129 54.8312C136.888 54.7704 136.727 54.5473 136.767 54.2837ZM133.227 44.1661L131.356 53.3308C131.296 53.5741 131.075 53.7363 130.813 53.6957C130.572 53.6349 130.411 53.4119 130.451 53.1483L132.322 43.9837C132.382 43.7404 132.603 43.5781 132.865 43.6187C133.106 43.6795 133.267 43.9026 133.227 44.1661Z" fill="#3D281A"/>
<path d="M100.621 15.5166C100.48 14.8678 100.118 12.8199 99.3736 11.4209C96.3362 5.78424 88.3506 3.45253 81.9138 4.95293C81.0488 5.15569 72.9828 7.18327 70.9914 13.8945C70.2672 16.3682 70.7299 18.9432 70.7299 18.9432C70.8305 19.5515 70.9914 20.4031 72.0776 23.3025C73.1638 26.2222 73.908 27.9254 73.908 27.9254C76.523 33.8864 76.4224 34.4541 78.4741 38.9351C81.069 44.592 84.4885 50.7356 86.0575 53.047C86.0575 53.047 87.0431 54.4866 88.8333 57.6699C88.9943 57.974 89.0546 58.0957 89.1149 58.1971C89.2356 58.5012 89.5575 59.2717 89.6379 59.7988C89.6379 59.8394 89.658 59.961 89.7586 60.0421C89.8793 60.1435 90.0603 60.0827 90.1006 60.0827C90.4023 60.0016 92.7155 59.7988 96.1149 59.515C96.4167 59.5555 96.7184 59.4541 96.8592 59.2311C97.0201 58.9878 96.9396 58.7039 96.9195 58.6634C96.7988 58.2984 96.4569 58.2782 96.2759 57.9335C96.135 57.6902 96.1753 57.4266 96.2356 57.0616C96.3965 56.0073 96.477 55.5004 96.5575 55.2368C97.0603 53.7364 99.9569 41.4696 100.822 31.3317C101.043 28.7972 101.063 26.9116 101.124 23.1403C101.184 19.4095 101.083 17.6253 100.621 15.4963V15.5166ZM88.6724 54.9732C88.4511 55.0949 87.1839 53.1281 86.8822 52.6618C85.4339 50.3909 82.9598 45.9708 78.8362 36.6845C78.454 35.7518 75.8592 29.4258 75.819 29.3447C75.4368 28.3917 73.9282 24.7218 72.6006 20.0584C72.2385 18.781 71.8965 17.4833 72.0374 15.7802C72.0977 15.0705 72.2787 13.1849 73.5259 11.3601C74.0086 10.6504 74.4914 10.2044 74.954 9.77856C76.181 8.62284 77.7098 7.66988 77.8908 7.87264C78.0316 8.03485 77.227 8.70395 76.5431 10.1638C76.0402 11.2181 75.8994 12.1305 75.7787 12.7996C75.3965 15.1719 75.7787 17.1792 75.9397 17.8483C77.0862 23.2822 79.8419 31.1087 80.727 33.6026C82.3764 38.3268 82.6379 39.1987 83.8448 42.4022C85.273 46.1735 85.977 48.0592 86.6609 49.4582C87.1437 50.472 87.3448 50.9789 87.7471 51.9927C88.1897 53.1484 88.8736 54.8718 88.6724 54.9935V54.9732ZM92.0517 58.6431C91.6896 58.7445 91.2874 58.3998 91.227 58.3593C90.9454 58.1159 90.8649 57.7915 90.8448 57.6699C89.7586 54.811 88.3305 51.0194 87.1839 48.0186C85.2126 42.8078 84.227 40.2125 83.5632 38.4282C83.5632 38.4282 81.7931 33.7039 77.3477 18.2336C77.0259 17.0778 76.4023 14.8475 77.0661 12.2522C77.0661 12.2522 77.7299 9.65691 80.1236 7.36575C80.1236 7.36575 81.0086 6.51417 82.6178 6.04782C82.7586 6.00727 83 5.96672 83.181 6.0681C83.181 6.0681 83.3822 6.18975 83.4425 6.49389C83.6034 7.18327 91.1264 49.1743 92.5948 57.386C92.6954 57.9943 92.4339 58.5215 92.0718 58.6228L92.0517 58.6431ZM95.3908 36.4209C95.2098 45.8491 95.1896 43.7202 95.1695 46.579C95.1695 47.5928 95.1695 49.3568 95.0086 51.7494C94.8879 53.7161 94.727 55.3382 94.6264 56.4128C94.546 57.4874 94.2644 58.2782 94.0029 58.2984C93.7213 58.2984 93.3592 57.528 93.1782 56.4128C91.6494 47.7956 84.4885 7.18327 84.3678 6.31141C84.3678 6.23031 84.3276 5.96672 84.4684 5.80451C84.5488 5.70314 84.7098 5.64231 85.3333 5.66258C85.7155 5.66258 85.8965 5.66258 86.1379 5.70314C87.023 5.84507 87.7672 6.23031 87.9282 6.31141C90.5431 7.64961 92.1724 9.79884 92.1724 9.79884C93.842 11.9683 94.385 14.1987 94.5862 15.4152C94.727 16.2465 94.8678 17.6456 95.1092 20.4639C95.1092 20.6464 95.2902 22.5523 95.3707 23.8297C95.5316 26.5466 95.5316 29.1419 95.3908 36.3803V36.4209ZM99.3333 34.0892C98.7098 38.7526 97.8851 44.1054 96.7988 50.0056C96.6983 50.7964 96.5373 51.283 96.4167 51.5466C96.3362 51.7088 96.2557 51.871 96.1753 51.871C96.0747 51.871 96.0144 51.6277 95.9942 51.5263C95.8534 50.9181 95.8937 49.5393 95.9138 48.7891C96.0345 46.721 96.1552 44.1662 96.2557 41.1857C96.3362 38.5499 96.3764 36.2587 96.4368 31.8183C96.5172 26.06 96.4971 24.1541 96.3764 21.6602C96.3362 20.8694 96.2356 18.4363 95.5517 15.3949C95.069 13.2052 94.5259 11.8264 93.8017 10.5896C93.4598 10.0016 92.9971 9.23112 92.1925 8.37954C91.1063 7.22382 90.2414 6.83858 90.342 6.63582C90.4626 6.35196 92.1121 6.69665 93.5603 7.46713C93.8419 7.60906 94.385 7.93347 95.1695 8.56202C95.9942 9.23112 97.7241 10.6301 98.7299 12.8808C99.3736 14.2798 99.4942 15.4963 99.5546 16.206C100.42 25.5936 99.2931 34.0689 99.2931 34.0689L99.3333 34.0892Z" fill="#3D281A" stroke="#3D281A" stroke-width="0.5" stroke-miterlimit="10"/>
</g>
<defs>
<clipPath id="clip0_1_18">
<rect width="154" height="125" fill="white"/>
</clipPath>
</defs>
</svg>
